<svg xmlns="http://www.w3.org/2000/svg" viewBox="0 0 480 360" fill="none">
  <defs>
    <linearGradient id="g1" x1="0%" y1="0%" x2="100%" y2="100%">
      <stop offset="0%" stop-color="#6366f1"/>
      <stop offset="100%" stop-color="#22d3ee"/>
    </linearGradient>
    <linearGradient id="g2" x1="0%" y1="100%" x2="100%" y2="0%">
      <stop offset="0%" stop-color="#10b981"/>
      <stop offset="100%" stop-color="#6366f1"/>
    </linearGradient>
  </defs>
  <rect x="40" y="200" width="400" height="120" rx="16" fill="#0f172a" stroke="#334155" stroke-width="2"/>
  <rect x="60" y="80" width="200" height="140" rx="12" fill="#1e293b" stroke="url(#g1)" stroke-width="2"/>
  <rect x="75" y="95" width="170" height="90" rx="8" fill="#0f172a"/>
  <circle cx="120" cy="130" r="8" fill="#22d3ee"/>
  <rect x="140" y="125" width="80" height="6" rx="3" fill="#475569"/>
  <rect x="140" y="138" width="60" height="6" rx="3" fill="#334155"/>
  <rect x="140" y="151" width="70" height="6" rx="3" fill="#334155"/>
  <rect x="280" y="100" width="160" height="110" rx="12" fill="#1e293b" stroke="url(#g2)" stroke-width="2"/>
  <path d="M300 150 Q340 120 380 150 T460 150" stroke="#10b981" stroke-width="3" fill="none" opacity="0.8"/>
  <circle cx="320" cy="165" r="20" fill="#6366f1" opacity="0.3"/>
  <circle cx="380" cy="155" r="14" fill="#22d3ee" opacity="0.4"/>
  <rect x="295" y="175" width="50" height="8" rx="4" fill="#475569"/>
  <rect x="355" y="175" width="70" height="8" rx="4" fill="#334155"/>
  <circle cx="100" cy="260" r="28" fill="#1e293b" stroke="#6366f1" stroke-width="2"/>
  <circle cx="100" cy="252" r="12" fill="#6366f1"/>
  <rect x="88" y="275" width="24" height="30" rx="6" fill="#334155"/>
  <circle cx="200" cy="255" r="24" fill="#1e293b" stroke="#10b981" stroke-width="2"/>
  <circle cx="200" cy="248" r="10" fill="#10b981"/>
  <rect x="190" y="268" width="20" height="26" rx="5" fill="#334155"/>
  <circle cx="300" cy="258" r="26" fill="#1e293b" stroke="#22d3ee" stroke-width="2"/>
  <circle cx="300" cy="250" r="11" fill="#22d3ee"/>
  <rect x="288" y="272" width="24" height="28" rx="6" fill="#334155"/>
  <text x="240" y="50" text-anchor="middle" fill="#94a3b8" font-family="system-ui,sans-serif" font-size="14" font-weight="600">AI EdTech Platform</text>
</svg>
